<svg xmlns="http://www.w3.org/2000/svg" xmlns:xlink="http://www.w3.org/1999/xlink" viewBox="0 0 841.89 595.28"><defs><style>.cls-1,.cls-10,.cls-100,.cls-101,.cls-102,.cls-103,.cls-104,.cls-105,.cls-106,.cls-107,.cls-108,.cls-109,.cls-11,.cls-110,.cls-111,.cls-112,.cls-113,.cls-114,.cls-115,.cls-116,.cls-117,.cls-118,.cls-119,.cls-12,.cls-120,.cls-121,.cls-122,.cls-123,.cls-124,.cls-125,.cls-126,.cls-127,.cls-128,.cls-129,.cls-13,.cls-130,.cls-131,.cls-132,.cls-133,.cls-134,.cls-135,.cls-136,.cls-137,.cls-138,.cls-139,.cls-14,.cls-140,.cls-141,.cls-142,.cls-143,.cls-144,.cls-15,.cls-16,.cls-17,.cls-18,.cls-19,.cls-20,.cls-21,.cls-22,.cls-23,.cls-24,.cls-25,.cls-26,.cls-27,.cls-28,.cls-29,.cls-30,.cls-31,.cls-32,.cls-33,.cls-34,.cls-35,.cls-36,.cls-37,.cls-38,.cls-39,.cls-4,.cls-40,.cls-41,.cls-42,.cls-43,.cls-44,.cls-45,.cls-46,.cls-47,.cls-48,.cls-49,.cls-5,.cls-50,.cls-51,.cls-52,.cls-53,.cls-55,.cls-56,.cls-57,.cls-58,.cls-59,.cls-6,.cls-60,.cls-61,.cls-62,.cls-63,.cls-64,.cls-65,.cls-66,.cls-67,.cls-68,.cls-69,.cls-7,.cls-70,.cls-71,.cls-72,.cls-73,.cls-74,.cls-75,.cls-76,.cls-77,.cls-78,.cls-79,.cls-8,.cls-80,.cls-81,.cls-82,.cls-83,.cls-84,.cls-85,.cls-86,.cls-87,.cls-88,.cls-89,.cls-9,.cls-90,.cls-91,.cls-92,.cls-93,.cls-94,.cls-95,.cls-96,.cls-97,.cls-98,.cls-99{fill:none;}.cls-2{isolation:isolate;}.cls-3{mix-blend-mode:multiply;}.cls-4{stroke:#f28e1b;}.cls-10,.cls-100,.cls-101,.cls-102,.cls-103,.cls-104,.cls-105,.cls-106,.cls-107,.cls-108,.cls-109,.cls-11,.cls-110,.cls-111,.cls-112,.cls-113,.cls-114,.cls-115,.cls-116,.cls-117,.cls-118,.cls-119,.cls-12,.cls-120,.cls-121,.cls-122,.cls-123,.cls-124,.cls-125,.cls-126,.cls-127,.cls-128,.cls-129,.cls-13,.cls-130,.cls-131,.cls-132,.cls-133,.cls-134,.cls-135,.cls-136,.cls-137,.cls-138,.cls-139,.cls-14,.cls-140,.cls-141,.cls-142,.cls-143,.cls-144,.cls-15,.cls-16,.cls-17,.cls-18,.cls-19,.cls-20,.cls-21,.cls-22,.cls-23,.cls-24,.cls-25,.cls-26,.cls-27,.cls-28,.cls-29,.cls-30,.cls-31,.cls-32,.cls-33,.cls-34,.cls-35,.cls-36,.cls-37,.cls-38,.cls-39,.cls-4,.cls-40,.cls-41,.cls-42,.cls-43,.cls-44,.cls-45,.cls-46,.cls-47,.cls-48,.cls-49,.cls-5,.cls-50,.cls-51,.cls-52,.cls-53,.cls-55,.cls-56,.cls-57,.cls-58,.cls-59,.cls-6,.cls-60,.cls-61,.cls-62,.cls-63,.cls-64,.cls-65,.cls-66,.cls-67,.cls-68,.cls-69,.cls-7,.cls-70,.cls-71,.cls-72,.cls-73,.cls-74,.cls-75,.cls-76,.cls-77,.cls-78,.cls-79,.cls-8,.cls-80,.cls-81,.cls-82,.cls-83,.cls-84,.cls-85,.cls-86,.cls-87,.cls-88,.cls-89,.cls-9,.cls-90,.cls-91,.cls-92,.cls-93,.cls-94,.cls-95,.cls-96,.cls-97,.cls-98,.cls-99{stroke-miterlimit:10;stroke-width:10px;}.cls-5{stroke:#f08c26;}.cls-6{stroke:#ed8a2f;}.cls-7{stroke:#ea8837;}.cls-8{stroke:#e8863f;}.cls-9{stroke:#e58446;}.cls-10{stroke:#e2824c;}.cls-11{stroke:#e08052;}.cls-12{stroke:#dd7e58;}.cls-13{stroke:#da7c5d;}.cls-14{stroke:#d87a62;}.cls-15{stroke:#d57867;}.cls-16{stroke:#d2766c;}.cls-17{stroke:#cf7470;}.cls-18{stroke:#cd7173;}.cls-19{stroke:#ca6f77;}.cls-20{stroke:#c76d7b;}.cls-21{stroke:#c56b7e;}.cls-22{stroke:#c26982;}.cls-23{stroke:#bf6785;}.cls-24{stroke:#bc6588;}.cls-25{stroke:#ba628b;}.cls-26{stroke:#b7608d;}.cls-27{stroke:#b45e90;}.cls-28{stroke:#b15c92;}.cls-29{stroke:#ae5994;}.cls-30{stroke:#ab5797;}.cls-31{stroke:#a95498;}.cls-32{stroke:#a6529a;}.cls-33{stroke:#e72173;}.cls-34{stroke:#e33576;}.cls-35{stroke:#df4377;}.cls-36{stroke:#dc517a;}.cls-37{stroke:#d85d7c;}.cls-38{stroke:#d4677d;}.cls-39{stroke:#d0717e;}.cls-40{stroke:#cb797e;}.cls-41{stroke:#c6817e;}.cls-42{stroke:#c1897d;}.cls-43{stroke:#bc907c;}.cls-44{stroke:#b6967a;}.cls-45{stroke:#b09c78;}.cls-46{stroke:#aaa175;}.cls-47{stroke:#a3a572;}.cls-48{stroke:#9ca96e;}.cls-49{stroke:#94ad6a;}.cls-50{stroke:#8cb066;}.cls-51{stroke:#82b361;}.cls-52{stroke:#78b55c;}.cls-53{stroke:#6cb756;}.cls-54{clip-path:url(#clip-path);}.cls-55{stroke:#e8328a;}.cls-56{stroke:#e53d8b;}.cls-57{stroke:#e2488c;}.cls-58{stroke:#e0518d;}.cls-59{stroke:#dd5a8e;}.cls-60{stroke:#da628e;}.cls-61{stroke:#d7698e;}.cls-62{stroke:#d4708e;}.cls-63{stroke:#d0768d;}.cls-64{stroke:#cd7b8b;}.cls-65{stroke:#c9818a;}.cls-66{stroke:#c68688;}.cls-67{stroke:#c28b85;}.cls-68{stroke:#be8f82;}.cls-69{stroke:#ba937f;}.cls-70{stroke:#b5977b;}.cls-71{stroke:#b19a77;}.cls-72{stroke:#ac9e72;}.cls-73{stroke:#a8a16d;}.cls-74{stroke:#a3a368;}.cls-75{stroke:#9da662;}.cls-76{stroke:#98a85c;}.cls-77{stroke:#93aa56;}.cls-78{stroke:#8dac4f;}.cls-79{stroke:#86ae49;}.cls-80{stroke:#e73921;}.cls-81{stroke:#e73d21;}.cls-82{stroke:#e84221;}.cls-83{stroke:#e84721;}.cls-84{stroke:#e94b21;}.cls-85{stroke:#e95021;}.cls-86{stroke:#ea5421;}.cls-87{stroke:#ea5821;}.cls-88{stroke:#eb5d21;}.cls-89{stroke:#eb6121;}.cls-90{stroke:#ec6521;}.cls-91{stroke:#ec6821;}.cls-92{stroke:#ed6c20;}.cls-93{stroke:#ee7020;}.cls-94{stroke:#ee7420;}.cls-95{stroke:#ef781f;}.cls-96{stroke:#ef7c1f;}.cls-97{stroke:#f07f1e;}.cls-98{stroke:#f0831e;}.cls-99{stroke:#f1861d;}.cls-100{stroke:#f28a1d;}.cls-101{stroke:#f28e1c;}.cls-102{stroke:#f3911b;}.cls-103{stroke:#f4951b;}.cls-104{stroke:#f4981a;}.cls-105{stroke:#e6007e;}.cls-106{stroke:#e11282;}.cls-107{stroke:#dd2787;}.cls-108{stroke:#d8358b;}.cls-109{stroke:#d34090;}.cls-110{stroke:#cd4a94;}.cls-111{stroke:#c8539a;}.cls-112{stroke:#c35c9f;}.cls-113{stroke:#bd63a4;}.cls-114{stroke:#b76aa8;}.cls-115{stroke:#b071ad;}.cls-116{stroke:#a976b1;}.cls-117{stroke:#a27bb6;}.cls-118{stroke:#9a80ba;}.cls-119{stroke:#9185be;}.cls-120{stroke:#8889c2;}.cls-121{stroke:#7d8cc6;}.cls-122{stroke:#728fc9;}.cls-123{stroke:#6492cd;}.cls-124{stroke:#5595d0;}.cls-125{stroke:#4297d3;}.cls-126{stroke:#2699d6;}.cls-127{stroke:#009ad8;}.cls-128{stroke:#009bda;}.cls-129{stroke:#009cdc;}.cls-130{stroke:#e8873e;}.cls-131{stroke:#e58545;}.cls-132{stroke:#e3834c;}.cls-133{stroke:#e08152;}.cls-134{stroke:#dd7f58;}.cls-135{stroke:#da7d5d;}.cls-136{stroke:#d87b62;}.cls-137{stroke:#d57967;}.cls-138{stroke:#d2766b;}.cls-139{stroke:#cd7273;}.cls-140{stroke:#ca7077;}.cls-141{stroke:#c76e7b;}.cls-142{stroke:#c56c7e;}.cls-143{stroke:#ba638b;}.cls-144{stroke:#ab5796;}</style><clipPath id="clip-path"><rect class="cls-1" x="137.48" y="-99.21" width="566.93" height="793.7" transform="translate(718.58 -123.31) rotate(90)"/></clipPath></defs><title>gradesuprema_color</title><g class="cls-2"><g id="Camada_3" data-name="Camada 3"><g class="cls-3"><line class="cls-4" x1="24.09" y1="14.17" x2="24.09" y2="581.1"/><line class="cls-5" x1="52.44" y1="14.17" x2="52.44" y2="581.1"/><line class="cls-6" x1="80.79" y1="14.17" x2="80.79" y2="581.1"/><line class="cls-7" x1="109.13" y1="14.17" x2="109.13" y2="581.1"/><line class="cls-8" x1="137.48" y1="14.17" x2="137.48" y2="581.1"/><line class="cls-9" x1="165.83" y1="14.17" x2="165.83" y2="581.1"/><line class="cls-10" x1="194.17" y1="14.17" x2="194.17" y2="581.1"/><line class="cls-11" x1="222.52" y1="14.17" x2="222.52" y2="581.1"/><line class="cls-12" x1="250.87" y1="14.17" x2="250.87" y2="581.1"/><line class="cls-13" x1="279.21" y1="14.17" x2="279.21" y2="581.1"/><line class="cls-14" x1="307.56" y1="14.17" x2="307.56" y2="581.1"/><line class="cls-15" x1="335.91" y1="14.17" x2="335.91" y2="581.1"/><line class="cls-16" x1="364.25" y1="14.17" x2="364.25" y2="581.1"/><line class="cls-17" x1="392.6" y1="14.17" x2="392.6" y2="581.1"/><line class="cls-18" x1="420.94" y1="14.17" x2="420.94" y2="581.1"/><line class="cls-19" x1="449.29" y1="14.17" x2="449.29" y2="581.1"/><line class="cls-20" x1="477.64" y1="14.17" x2="477.64" y2="581.1"/><line class="cls-21" x1="505.98" y1="14.17" x2="505.98" y2="581.1"/><line class="cls-22" x1="534.33" y1="14.17" x2="534.33" y2="581.1"/><line class="cls-23" x1="562.68" y1="14.17" x2="562.68" y2="581.1"/><line class="cls-24" x1="591.02" y1="14.17" x2="591.02" y2="581.1"/><line class="cls-25" x1="619.37" y1="14.17" x2="619.37" y2="581.1"/><line class="cls-26" x1="647.72" y1="14.17" x2="647.72" y2="581.1"/><line class="cls-27" x1="676.06" y1="14.17" x2="676.06" y2="581.1"/><line class="cls-28" x1="704.41" y1="14.17" x2="704.41" y2="581.1"/><line class="cls-29" x1="732.76" y1="14.17" x2="732.76" y2="581.1"/><line class="cls-30" x1="761.1" y1="14.17" x2="761.1" y2="581.1"/><line class="cls-31" x1="789.45" y1="14.17" x2="789.45" y2="581.1"/><line class="cls-32" x1="817.8" y1="14.17" x2="817.8" y2="581.1"/></g><g class="cls-3"><line class="cls-33" x1="24.09" y1="14.17" x2="817.8" y2="14.17"/><line class="cls-34" x1="24.09" y1="42.52" x2="817.8" y2="42.52"/><line class="cls-35" x1="24.09" y1="70.87" x2="817.8" y2="70.87"/><line class="cls-36" x1="24.09" y1="99.21" x2="817.8" y2="99.21"/><line class="cls-37" x1="24.09" y1="127.56" x2="817.8" y2="127.56"/><line class="cls-38" x1="24.09" y1="155.91" x2="817.8" y2="155.91"/><line class="cls-39" x1="24.09" y1="184.25" x2="817.8" y2="184.25"/><line class="cls-40" x1="24.09" y1="212.6" x2="817.8" y2="212.6"/><line class="cls-41" x1="24.09" y1="240.95" x2="817.8" y2="240.95"/><line class="cls-42" x1="24.09" y1="269.29" x2="817.8" y2="269.29"/><line class="cls-43" x1="24.09" y1="297.64" x2="817.8" y2="297.64"/><line class="cls-44" x1="24.09" y1="325.98" x2="817.8" y2="325.98"/><line class="cls-45" x1="24.09" y1="354.33" x2="817.8" y2="354.33"/><line class="cls-46" x1="24.09" y1="382.68" x2="817.8" y2="382.68"/><line class="cls-47" x1="24.09" y1="411.02" x2="817.8" y2="411.02"/><line class="cls-48" x1="24.09" y1="439.37" x2="817.8" y2="439.37"/><line class="cls-49" x1="24.09" y1="467.72" x2="817.8" y2="467.72"/><line class="cls-50" x1="24.09" y1="496.06" x2="817.8" y2="496.06"/><line class="cls-51" x1="24.09" y1="524.41" x2="817.8" y2="524.41"/><line class="cls-52" x1="24.09" y1="552.76" x2="817.8" y2="552.76"/><line class="cls-53" x1="24.09" y1="581.1" x2="817.8" y2="581.1"/></g></g><g id="Camada_6" data-name="Camada 6" class="cls-3"><g class="cls-3"><g class="cls-54"><line class="cls-55" x1="704.44" y1="14.33" x2="137.52" y2="581.03"/><line class="cls-56" x1="732.78" y1="14.33" x2="165.87" y2="581.02"/><line class="cls-57" x1="761.13" y1="14.33" x2="194.23" y2="581.02"/><line class="cls-58" x1="789.47" y1="14.33" x2="222.58" y2="581.02"/><line class="cls-59" x1="817.82" y1="14.33" x2="250.94" y2="581.02"/><line class="cls-60" x1="846.16" y1="14.33" x2="279.29" y2="581.01"/><line class="cls-61" x1="874.51" y1="14.33" x2="307.65" y2="581.01"/><line class="cls-62" x1="902.85" y1="14.33" x2="336" y2="581.01"/><line class="cls-63" x1="931.2" y1="14.33" x2="364.36" y2="581"/><line class="cls-64" x1="959.54" y1="14.33" x2="392.71" y2="581"/><line class="cls-65" x1="987.89" y1="14.33" x2="421.07" y2="581"/><line class="cls-66" x1="1016.23" y1="14.33" x2="449.43" y2="581"/><line class="cls-67" x1="1044.58" y1="14.33" x2="477.78" y2="580.99"/><line class="cls-68" x1="1072.92" y1="14.33" x2="506.14" y2="580.99"/><line class="cls-69" x1="1101.27" y1="14.33" x2="534.49" y2="580.99"/><line class="cls-70" x1="1129.61" y1="14.33" x2="562.85" y2="580.99"/><line class="cls-71" x1="1157.96" y1="14.33" x2="591.2" y2="580.98"/><line class="cls-72" x1="1186.3" y1="14.33" x2="619.56" y2="580.98"/><line class="cls-73" x1="1214.65" y1="14.33" x2="647.91" y2="580.98"/><line class="cls-74" x1="1242.99" y1="14.33" x2="676.27" y2="580.97"/><line class="cls-75" x1="1271.33" y1="14.33" x2="704.62" y2="580.97"/><line class="cls-76" x1="1299.68" y1="14.33" x2="732.98" y2="580.97"/><line class="cls-77" x1="1328.02" y1="14.33" x2="761.34" y2="580.97"/><line class="cls-78" x1="1356.37" y1="14.33" x2="789.69" y2="580.96"/><line class="cls-79" x1="1384.71" y1="14.33" x2="818.05" y2="580.96"/><line class="cls-80" x1="23.57" y1="14.33" x2="-543.11" y2="580.96"/><line class="cls-81" x1="51.94" y1="14.33" x2="-514.75" y2="580.96"/><line class="cls-82" x1="80.31" y1="14.33" x2="-486.39" y2="580.97"/><line class="cls-83" x1="108.68" y1="14.33" x2="-458.03" y2="580.97"/><line class="cls-84" x1="137.04" y1="14.33" x2="-429.68" y2="580.97"/><line class="cls-85" x1="165.41" y1="14.33" x2="-401.32" y2="580.97"/><line class="cls-86" x1="193.78" y1="14.33" x2="-372.96" y2="580.98"/><line class="cls-87" x1="222.15" y1="14.33" x2="-344.6" y2="580.98"/><line class="cls-88" x1="250.52" y1="14.33" x2="-316.25" y2="580.98"/><line class="cls-89" x1="278.89" y1="14.33" x2="-287.89" y2="580.99"/><line class="cls-90" x1="307.26" y1="14.33" x2="-259.53" y2="580.99"/><line class="cls-91" x1="335.63" y1="14.33" x2="-231.17" y2="580.99"/><line class="cls-92" x1="364" y1="14.33" x2="-202.82" y2="580.99"/><line class="cls-93" x1="392.37" y1="14.33" x2="-174.46" y2="581"/><line class="cls-94" x1="420.74" y1="14.33" x2="-146.1" y2="581"/><line class="cls-95" x1="449.11" y1="14.33" x2="-117.74" y2="581"/><line class="cls-96" x1="477.48" y1="14.33" x2="-89.39" y2="581"/><line class="cls-97" x1="505.85" y1="14.33" x2="-61.03" y2="581.01"/><line class="cls-98" x1="534.22" y1="14.33" x2="-32.67" y2="581.01"/><line class="cls-99" x1="562.59" y1="14.33" x2="-4.31" y2="581.01"/><line class="cls-100" x1="590.96" y1="14.33" x2="24.04" y2="581.02"/><line class="cls-101" x1="619.33" y1="14.33" x2="52.4" y2="581.02"/><line class="cls-102" x1="647.7" y1="14.33" x2="80.76" y2="581.02"/><line class="cls-103" x1="676.07" y1="14.33" x2="109.12" y2="581.02"/><line class="cls-104" x1="704.44" y1="14.33" x2="137.47" y2="581.03"/><line class="cls-105" x1="137.47" y1="14.33" x2="704.41" y2="581.07"/><line class="cls-106" x1="109.13" y1="14.33" x2="676.06" y2="581.06"/><line class="cls-107" x1="80.78" y1="14.33" x2="647.7" y2="581.06"/><line class="cls-108" x1="52.44" y1="14.33" x2="619.34" y2="581.06"/><line class="cls-109" x1="24.09" y1="14.33" x2="590.99" y2="581.05"/><line class="cls-110" x1="-4.25" y1="14.33" x2="562.63" y2="581.05"/><line class="cls-111" x1="-32.6" y1="14.33" x2="534.27" y2="581.04"/><line class="cls-112" x1="-60.94" y1="14.33" x2="505.92" y2="581.04"/><line class="cls-113" x1="-89.29" y1="14.33" x2="477.56" y2="581.03"/><line class="cls-114" x1="-117.63" y1="14.33" x2="449.21" y2="581.03"/><line class="cls-115" x1="-145.98" y1="14.33" x2="420.85" y2="581.03"/><line class="cls-116" x1="-174.32" y1="14.33" x2="392.49" y2="581.02"/><line class="cls-117" x1="-202.67" y1="14.33" x2="364.14" y2="581.02"/><line class="cls-118" x1="-231.01" y1="14.33" x2="335.78" y2="581.01"/><line class="cls-119" x1="-259.35" y1="14.33" x2="307.43" y2="581.01"/><line class="cls-120" x1="-287.7" y1="14.33" x2="279.07" y2="581.01"/><line class="cls-121" x1="-316.04" y1="14.33" x2="250.71" y2="581"/><line class="cls-122" x1="-344.39" y1="14.33" x2="222.36" y2="581"/><line class="cls-123" x1="-372.73" y1="14.33" x2="194" y2="580.99"/><line class="cls-124" x1="-401.08" y1="14.33" x2="165.65" y2="580.99"/><line class="cls-125" x1="-429.42" y1="14.33" x2="137.29" y2="580.98"/><line class="cls-126" x1="-457.77" y1="14.33" x2="108.93" y2="580.98"/><line class="cls-127" x1="-486.11" y1="14.33" x2="80.58" y2="580.98"/><line class="cls-128" x1="-514.46" y1="14.33" x2="52.22" y2="580.97"/><line class="cls-129" x1="-542.8" y1="14.33" x2="23.87" y2="580.97"/><line class="cls-130" x1="818.88" y1="14.33" x2="1385.54" y2="580.96"/><line class="cls-131" x1="790.49" y1="14.33" x2="1357.16" y2="580.96"/><line class="cls-132" x1="762.09" y1="14.33" x2="1328.78" y2="580.96"/><line class="cls-133" x1="733.7" y1="14.33" x2="1300.4" y2="580.96"/><line class="cls-134" x1="705.31" y1="14.33" x2="1272.01" y2="580.97"/><line class="cls-135" x1="676.92" y1="14.33" x2="1243.63" y2="580.97"/><line class="cls-136" x1="648.52" y1="14.33" x2="1215.25" y2="580.97"/><line class="cls-137" x1="620.13" y1="14.33" x2="1186.87" y2="580.97"/><line class="cls-138" x1="591.74" y1="14.33" x2="1158.49" y2="580.97"/><line class="cls-17" x1="563.35" y1="14.33" x2="1130.1" y2="580.98"/><line class="cls-139" x1="534.95" y1="14.33" x2="1101.72" y2="580.98"/><line class="cls-140" x1="506.56" y1="14.33" x2="1073.34" y2="580.98"/><line class="cls-141" x1="478.17" y1="14.33" x2="1044.96" y2="580.98"/><line class="cls-142" x1="449.78" y1="14.33" x2="1016.57" y2="580.98"/><line class="cls-22" x1="421.38" y1="14.33" x2="988.19" y2="580.99"/><line class="cls-23" x1="392.99" y1="14.33" x2="959.81" y2="580.99"/><line class="cls-24" x1="364.6" y1="14.33" x2="931.43" y2="580.99"/><line class="cls-143" x1="336.21" y1="14.33" x2="903.05" y2="580.99"/><line class="cls-26" x1="307.81" y1="14.33" x2="874.66" y2="580.99"/><line class="cls-27" x1="279.42" y1="14.33" x2="846.28" y2="581"/><line class="cls-28" x1="251.03" y1="14.33" x2="817.9" y2="581"/><line class="cls-29" x1="222.64" y1="14.33" x2="789.52" y2="581"/><line class="cls-144" x1="194.24" y1="14.33" x2="761.13" y2="581"/><line class="cls-31" x1="165.85" y1="14.33" x2="732.75" y2="581"/><line class="cls-32" x1="137.46" y1="14.33" x2="704.37" y2="581.01"/></g></g></g></g></svg>